<svg width="23" height="23" viewBox="0 0 23 23" fill="none" xmlns="http://www.w3.org/2000/svg">
<path d="M20.3773 16.8675C22.4837 14.4427 21.5128 10.4467 18.611 9.2645V1.82555C18.611 1.00516 17.9591 0.337982 17.1575 0.337982H4.8031C4.00152 0.337982 3.34964 1.00516 3.34964 1.82555V2.56933H2.25955C1.45797 2.56933 0.806091 3.23651 0.806091 4.0569V21.1639C0.806091 21.9843 1.45797 22.6515 2.25955 22.6515H14.6139C15.4155 22.6515 16.0674 21.9843 16.0674 21.1639V20.4201H17.1575C17.8828 20.4213 18.5252 19.8474 18.5964 19.1074V18.1933C19.0574 17.9969 19.485 17.727 19.8635 17.3937L21.9877 19.5674C22.0212 19.6029 22.0613 19.6313 22.1056 19.6507C22.15 19.6702 22.1977 19.6805 22.2459 19.6809C22.2942 19.6813 22.342 19.6719 22.3867 19.6532C22.4313 19.6345 22.4719 19.6069 22.506 19.572C22.5401 19.5371 22.5671 19.4956 22.5854 19.4499C22.6036 19.4042 22.6128 19.3552 22.6124 19.3058C22.612 19.2564 22.602 19.2076 22.5829 19.1623C22.5639 19.1169 22.5362 19.0758 22.5015 19.0415L20.3773 16.8675ZM15.3407 21.1639C15.3407 21.5741 15.0147 21.9077 14.6139 21.9077H2.25955C1.85876 21.9077 1.53282 21.5741 1.53282 21.1639V4.0569C1.53282 3.6467 1.85876 3.31312 2.25955 3.31312H3.34964V18.9326C3.34964 19.753 4.00152 20.4201 4.8031 20.4201H15.3407V21.1639ZM17.8697 19.0761C17.8369 19.2449 17.7481 19.3969 17.6183 19.5063C17.4884 19.6157 17.3257 19.6758 17.1575 19.6764H4.8031C4.40231 19.6764 4.07637 19.3428 4.07637 18.9326V1.82555C4.07637 1.41535 4.40231 1.08177 4.8031 1.08177H17.1575C17.5583 1.08177 17.8842 1.41535 17.8842 1.82555V9.02649C17.3696 8.8989 16.8376 8.8618 16.3109 8.91679C17.0539 5.51397 14.3872 2.15653 10.9803 2.19744C7.97491 2.19744 5.52983 4.6999 5.52983 7.77582C5.49022 11.2619 8.77032 13.9924 12.0951 13.2315C11.7157 16.4632 14.7887 19.2331 17.8697 18.4294V19.0761ZM10.9803 8.14771H15.6895C15.6647 8.46111 15.6099 8.77126 15.526 9.07372C14.7446 9.29849 14.0327 9.72505 13.4588 10.3125C12.8848 10.8999 12.4681 11.6284 12.2484 12.4282C9.30519 13.323 6.2115 10.9183 6.25656 7.77582C6.25656 5.2358 8.18239 3.15097 10.6169 2.95982V7.77582C10.6169 7.87445 10.6552 7.96905 10.7234 8.03879C10.7915 8.10853 10.8839 8.14771 10.9803 8.14771ZM11.3437 7.40393V2.95982C13.6583 3.14205 15.5078 5.03498 15.6859 7.40393H11.3437ZM16.7941 17.8169C14.5903 17.8169 12.7971 15.9816 12.7971 13.7261C13.0166 8.29907 20.5724 8.30056 20.7911 13.7261C20.7911 15.9816 18.9979 17.8169 16.7941 17.8169Z" fill="#02092A"/>
</svg>
