<svg width="25" height="25" viewBox="0 0 25 25" fill="none" xmlns="http://www.w3.org/2000/svg">
<path d="M1.38889 13.8889H9.72222C10.4889 13.8889 11.1111 13.2681 11.1111 12.5V1.38889C11.1111 0.620833 10.4889 0 9.72222 0H1.38889C0.622222 0 0 0.620833 0 1.38889V12.5C0 13.2681 0.622222 13.8889 1.38889 13.8889ZM0 23.6111C0 24.3792 0.622222 25 1.38889 25H9.72222C10.4889 25 11.1111 24.3792 11.1111 23.6111V18.0556C11.1111 17.2875 10.4889 16.6667 9.72222 16.6667H1.38889C0.622222 16.6667 0 17.2875 0 18.0556V23.6111ZM13.8889 23.6111C13.8889 24.3792 14.5097 25 15.2778 25H23.6111C24.3792 25 25 24.3792 25 23.6111V13.8889C25 13.1208 24.3792 12.5 23.6111 12.5H15.2778C14.5097 12.5 13.8889 13.1208 13.8889 13.8889V23.6111ZM15.2778 9.72222H23.6111C24.3792 9.72222 25 9.10139 25 8.33333V1.38889C25 0.620833 24.3792 0 23.6111 0H15.2778C14.5097 0 13.8889 0.620833 13.8889 1.38889V8.33333C13.8889 9.10139 14.5097 9.72222 15.2778 9.72222Z" fill="white"/>
</svg>
