<svg width="37" height="29" viewBox="0 0 37 29" fill="none" xmlns="http://www.w3.org/2000/svg">
<path d="M18.4974 27.5854C19.5582 27.5854 20.6191 27.5359 21.6758 27.4439C21.022 28.3846 19.8255 29 18.4974 29C17.1694 29 15.9729 28.3846 15.3191 27.4439C16.3758 27.5359 17.4366 27.5854 18.4974 27.5854ZM20.5327 1.59854C20.4299 0.703781 19.5624 0 18.4974 0C17.4325 0 16.5649 0.703781 16.4621 1.59854C17.12 1.47829 17.7984 1.41463 18.4974 1.41463C19.1964 1.41463 19.8748 1.47829 20.5327 1.59854ZM26.6057 13.4001C26.6057 17.2833 28.2051 20.933 31.1121 23.7269C27.1702 25.3371 22.8612 26.1725 18.4974 26.1725C14.1337 26.1725 9.82461 25.3371 5.88279 23.7269C8.79386 20.933 10.3892 17.2833 10.3892 13.4001V9.72207C10.3892 5.92024 14.0239 2.82927 18.4974 2.82927C22.9709 2.82927 26.6057 5.92024 26.6057 9.72207V13.4001ZM19.3198 5.65854C19.3198 5.26951 18.9497 4.95122 18.4974 4.95122C15.3232 4.95122 12.7411 7.17219 12.7411 9.90244C12.7411 10.2915 13.1111 10.6098 13.5634 10.6098C14.0157 10.6098 14.3857 10.2915 14.3857 9.90244C14.3857 9.62659 14.4269 9.3578 14.4968 9.09963C14.8504 7.79463 16.0469 6.76549 17.5641 6.46134C17.8642 6.40122 18.1767 6.36585 18.4974 6.36585C18.9497 6.36585 19.3198 6.04756 19.3198 5.65854ZM6.33096 14.3691C6.07987 14.1548 5.88079 13.8996 5.74527 13.6185C5.60975 13.3375 5.54049 13.036 5.54152 12.7317C5.54152 12.1128 5.82111 11.5328 6.33096 11.0943C6.65167 10.8184 6.65167 10.3693 6.33096 10.0934C6.01025 9.81756 5.48807 9.81756 5.16736 10.0934C4.34913 10.7972 3.89685 11.7344 3.89685 12.7317C3.89685 13.729 4.34913 14.6662 5.16736 15.37C5.32771 15.5079 5.53741 15.5787 5.7471 15.5787C5.9568 15.5787 6.1665 15.5079 6.32685 15.37C6.65579 15.0941 6.65579 14.645 6.33096 14.3691ZM3.57202 7.72037C3.25131 7.44451 2.72913 7.44451 2.40842 7.72037C-0.802806 10.4824 -0.802806 14.981 2.40842 17.7466C2.56877 17.8845 2.77847 17.9552 2.98816 17.9552C3.19786 17.9552 3.40756 17.8845 3.56791 17.7466C3.88862 17.4707 3.88862 17.0216 3.56791 16.7457C0.993999 14.5318 0.993999 10.9351 3.56791 8.72122C3.89274 8.44183 3.89274 7.99622 3.57202 7.72037ZM30.6639 10.0934C30.3432 10.3693 30.3432 10.8184 30.6639 11.0943C30.915 11.3086 31.1141 11.5638 31.2496 11.8449C31.3851 12.126 31.4544 12.4274 31.4533 12.7317C31.4533 13.3506 31.1737 13.9306 30.6639 14.3691C30.549 14.4681 30.4707 14.5942 30.4389 14.7313C30.4071 14.8685 30.4232 15.0107 30.4852 15.1401C30.5472 15.2694 30.6523 15.3801 30.7872 15.4581C30.9222 15.5361 31.081 15.5781 31.2436 15.5787C31.4533 15.5787 31.663 15.5079 31.8234 15.37C32.6416 14.6662 33.0939 13.729 33.0939 12.7317C33.0939 11.7344 32.6416 10.7972 31.8234 10.0934C31.5027 9.81756 30.9846 9.81756 30.6639 10.0934ZM34.5864 7.72037C34.2657 7.44451 33.7435 7.44451 33.4228 7.72037C33.1021 7.99622 33.1021 8.44537 33.4228 8.72122C34.6687 9.7928 35.3553 11.2145 35.3553 12.7317C35.3553 14.2489 34.6687 15.6706 33.4228 16.7422C33.3079 16.8412 33.2296 16.9672 33.1978 17.1044C33.166 17.2416 33.1821 17.3838 33.2441 17.5131C33.3061 17.6424 33.4112 17.7531 33.5462 17.8312C33.6811 17.9092 33.84 17.9511 34.0026 17.9517C34.2123 17.9517 34.422 17.881 34.5823 17.743C36.1448 16.4062 37 14.6238 37 12.7317C37 10.8396 36.1448 9.05719 34.5864 7.72037Z" fill="white"/>
</svg>
