<svg width="32" height="32" viewBox="0 0 32 32" fill="none" xmlns="http://www.w3.org/2000/svg">
<path d="M1.73966 15.5188H5.82379V14.4046H1.73966V11.4444L6.51759 9.43888L6.15103 8.39886L1.04586 10.5417C0.949552 10.5821 0.866729 10.6535 0.808312 10.7463C0.749895 10.8391 0.718626 10.9491 0.718628 11.0617V16.6331H1.73966V15.5188ZM30.3286 18.3045H24.2024C24.067 18.3045 23.9371 18.3632 23.8414 18.4677C23.7456 18.5722 23.6919 18.7139 23.6919 18.8617V23.3188C23.6919 23.4666 23.7456 23.6083 23.8414 23.7128C23.9371 23.8173 24.067 23.876 24.2024 23.876H30.3286V29.7504L24.3857 27.2559C24.2691 27.207 24.1401 27.2064 24.0231 27.2543L18.5867 29.4791V26.6617C18.5867 26.5672 18.5647 26.4742 18.5227 26.3916C18.4807 26.3089 18.4202 26.2393 18.3468 26.1892L14.2626 23.4035C14.1815 23.3482 14.0877 23.3188 13.9921 23.3188H11.95C11.8146 23.3188 11.6847 23.3775 11.589 23.482C11.4933 23.5865 11.4395 23.7282 11.4395 23.876V28.6434L8.37637 27.3898V23.876C8.37637 23.7282 8.32259 23.5865 8.22685 23.482C8.13111 23.3775 8.00125 23.3188 7.86586 23.3188H1.73966V19.976H9.90792C10.0433 19.976 10.1732 19.9173 10.2689 19.8128C10.3647 19.7083 10.4184 19.5666 10.4184 19.4188V16.6331H9.3974V18.8617H1.73966V17.7474H0.718628V31.1188C0.718627 31.2123 0.740187 31.3043 0.78132 31.3863C0.822452 31.4683 0.881836 31.5377 0.954 31.5881C1.02616 31.6385 1.10879 31.6682 1.19426 31.6746C1.27973 31.681 1.3653 31.6638 1.44308 31.6247L7.88623 28.3793L15.8549 31.6405C15.9704 31.6877 16.0978 31.6877 16.2134 31.6405L24.2001 28.3719L30.6558 31.0817C30.7331 31.1141 30.8165 31.1256 30.8988 31.115C30.9811 31.1044 31.0598 31.0721 31.1281 31.0209C31.1964 30.9697 31.2523 30.9012 31.2909 30.8212C31.3294 30.7411 31.3496 30.6521 31.3496 30.5616V17.1903H30.3286V18.3045ZM1.73966 24.4331H7.35534V27.4195L1.73966 30.248V24.4331ZM16.0341 30.5238L12.4605 29.0613V24.4331H13.8456L17.5657 26.9705V29.897L16.0341 30.5238ZM24.7129 22.7617V19.4188H30.3286V22.7617H24.7129Z" fill="white"/>
<path d="M31.0223 10.5417L24.3856 7.75596C24.2781 7.71088 24.1599 7.70674 24.05 7.7442L16.034 10.478L14.6548 10.0076L14.3502 11.0711L15.8818 11.5934C15.9809 11.6272 16.0871 11.6272 16.1863 11.5934L19.6076 10.4266V21.7206L15.8067 18.9552C15.7228 18.8942 15.6243 18.8616 15.5235 18.8617H14.5025V16.6331H13.4814V19.4188C13.4814 19.5666 13.5352 19.7083 13.631 19.8127C13.7267 19.9172 13.8566 19.9759 13.992 19.9759H15.3689L19.835 23.2252C19.9119 23.2811 20.0012 23.3132 20.0935 23.3181C20.1858 23.323 20.2776 23.3004 20.359 23.2528C20.4405 23.2053 20.5086 23.1344 20.5561 23.0479C20.6036 22.9614 20.6287 22.8625 20.6287 22.7616V10.0784L23.6918 9.03378V14.4045C23.6918 14.5523 23.7456 14.694 23.8413 14.7985C23.937 14.903 24.0669 14.9617 24.2023 14.9617H30.3285V16.0759H31.3495V11.0617C31.3495 10.9491 31.3182 10.8391 31.2598 10.7463C31.2014 10.6534 31.1186 10.5821 31.0223 10.5417ZM24.7128 13.8474V9.0872L30.3285 11.4443V13.8474H24.7128Z" fill="white"/>
<path d="M8.95133 11.3199C7.64599 11.6896 6.84474 12.4168 6.84474 13.2903C6.84474 13.686 7.02092 14.4324 8.20087 14.9842C8.93794 15.329 9.90675 15.5188 10.9289 15.5188C11.951 15.5188 12.9198 15.329 13.6569 14.9842C14.8368 14.4324 15.013 13.686 15.013 13.2903C15.013 12.408 14.2251 11.6877 12.9073 11.3188C13.0589 11.1278 13.2141 10.9254 13.3696 10.7133C14.7988 8.76359 15.5235 7.00631 15.5235 5.49028C15.5235 4.16042 15.0394 2.88502 14.1778 1.94466C13.3161 1.0043 12.1475 0.476013 10.9289 0.476013C9.7103 0.476013 8.54163 1.0043 7.67997 1.94466C6.81831 2.88502 6.33423 4.16042 6.33423 5.49028C6.33423 7.00631 7.05891 8.76359 8.48815 10.7133C8.64394 10.9258 8.79942 11.1286 8.95133 11.3199ZM13.992 13.2903C13.992 13.6831 12.829 14.4045 10.9289 14.4045C9.02871 14.4045 7.86578 13.6831 7.86578 13.2903C7.86578 12.9959 8.53621 12.4887 9.75645 12.2746C10.2317 12.8061 10.5684 13.1292 10.5927 13.1524C10.6858 13.2413 10.8052 13.2903 10.9289 13.2903C11.0525 13.2903 11.172 13.2413 11.2651 13.1524C11.2894 13.1292 11.6261 12.8061 12.1014 12.2746C13.435 12.5064 13.992 13.0435 13.992 13.2903ZM10.9289 1.5903C11.8763 1.59147 12.7847 2.00273 13.4546 2.73387C14.1246 3.46501 14.5014 4.4563 14.5025 5.49028C14.5025 6.72575 13.8385 8.28644 12.5823 10.0036C12.0705 10.6983 11.5182 11.3563 10.9287 11.9734C10.3432 11.3604 9.79432 10.707 9.28547 10.0172C8.0227 8.29463 7.35526 6.72926 7.35526 5.49028C7.35634 4.4563 7.73318 3.46501 8.40313 2.73387C9.07308 2.00273 9.98142 1.59147 10.9289 1.5903Z" fill="white"/>
<path d="M10.929 7.71885C11.3329 7.71885 11.7277 7.58815 12.0635 7.34327C12.3994 7.09839 12.6611 6.75034 12.8157 6.34312C12.9702 5.9359 13.0106 5.48781 12.9319 5.05551C12.8531 4.62321 12.6586 4.22612 12.373 3.91445C12.0874 3.60278 11.7235 3.39053 11.3274 3.30454C10.9313 3.21855 10.5207 3.26268 10.1476 3.43136C9.77443 3.60003 9.4555 3.88568 9.23111 4.25216C9.00673 4.61865 8.88696 5.04952 8.88696 5.49029C8.88757 6.08113 9.10291 6.64759 9.48574 7.06538C9.86857 7.48318 10.3876 7.71818 10.929 7.71885ZM10.929 4.376C11.131 4.376 11.3284 4.44135 11.4963 4.56379C11.6642 4.68623 11.7951 4.86026 11.8723 5.06387C11.9496 5.26748 11.9698 5.49152 11.9304 5.70767C11.891 5.92382 11.7938 6.12237 11.651 6.2782C11.5082 6.43404 11.3263 6.54016 11.1282 6.58316C10.9302 6.62615 10.7249 6.60409 10.5383 6.51975C10.3517 6.43541 10.1923 6.29259 10.0801 6.10935C9.96788 5.9261 9.908 5.71067 9.908 5.49029C9.9083 5.19486 10.016 4.91164 10.2074 4.70274C10.3988 4.49385 10.6583 4.37634 10.929 4.376Z" fill="white"/>
</svg>
