<svg width="31" height="28" viewBox="0 0 31 28" fill="none" xmlns="http://www.w3.org/2000/svg">
<path d="M15.4545 15.7231C20.0455 15.7231 23.7273 12.1908 23.7273 7.88308C23.7273 3.57538 20.0455 0 15.4545 0C10.8636 0 7.18182 3.53231 7.18182 7.84C7.18182 12.1477 10.8636 15.7231 15.4545 15.7231ZM15.4545 2.06769C18.8182 2.06769 21.5455 4.65231 21.5455 7.84C21.5455 11.0277 18.8182 13.6123 15.4545 13.6123C12.0909 13.6123 9.36364 11.0708 9.36364 7.88308C9.36364 4.69538 12.0909 2.06769 15.4545 2.06769ZM1.09091 28H29.9091C30.5 28 31 27.5262 31 26.9662C31 21.5385 26.3182 17.1015 20.5909 17.1015H10.4091C4.68182 17.1015 0 21.5385 0 26.9662C0 27.5262 0.5 28 1.09091 28ZM10.4091 19.1692H20.5909C24.7727 19.1692 28.1818 22.0985 28.7273 25.9323H2.27273C2.81818 22.0985 6.22727 19.1692 10.4091 19.1692Z" fill="white"/>
</svg>
