<svg width="35" height="32" viewBox="0 0 35 32" fill="none" xmlns="http://www.w3.org/2000/svg">
<path d="M31.4125 23.7051C34.7934 20.2277 33.235 14.4971 28.5775 12.8016V2.13333C28.5775 0.9568 27.5312 0 26.2446 0H6.41535C5.12878 0 4.0825 0.9568 4.0825 2.13333V3.2H2.33286C1.04629 3.2 0 4.1568 0 5.33333V29.8667C0 31.0432 1.04629 32 2.33286 32H22.1621C23.4487 32 24.495 31.0432 24.495 29.8667V28.8H26.2446C27.4087 28.8016 28.4398 27.9787 28.5542 26.9173V25.6064C29.294 25.3248 29.9804 24.9378 30.5878 24.4597L33.9973 27.5771C34.0511 27.628 34.1154 27.6686 34.1866 27.6966C34.2578 27.7245 34.3343 27.7393 34.4117 27.7399C34.4892 27.7405 34.566 27.727 34.6376 27.7002C34.7093 27.6734 34.7744 27.6338 34.8292 27.5837C34.8839 27.5336 34.9272 27.4741 34.9566 27.4085C34.9859 27.343 35.0007 27.2727 35 27.2019C34.9993 27.1311 34.9832 27.0611 34.9527 26.9961C34.9221 26.931 34.8777 26.8721 34.822 26.8229L31.4125 23.7051ZM23.3286 29.8667C23.3286 30.4549 22.8054 30.9333 22.1621 30.9333H12.2475H2.33286C1.68957 30.9333 1.16643 30.4549 1.16643 29.8667V5.33333C1.16643 4.74507 1.68957 4.26667 2.33286 4.26667H4.0825V26.6667C4.0825 27.8432 5.12878 28.8 6.41535 28.8H23.3286V29.8667ZM27.3877 26.8725C27.3351 27.1146 27.1925 27.3326 26.9842 27.4895C26.7758 27.6464 26.5145 27.7325 26.2446 27.7333H6.41535C5.77207 27.7333 5.24893 27.2549 5.24893 26.6667V2.13333C5.24893 1.54507 5.77207 1.06667 6.41535 1.06667H26.2446C26.8879 1.06667 27.4111 1.54507 27.4111 2.13333V12.4603C26.5851 12.2773 25.7312 12.2241 24.8857 12.3029C26.0784 7.42293 21.7982 2.608 16.33 2.66667C11.5062 2.66667 7.58178 6.25547 7.58178 10.6667C7.51821 15.6661 12.7829 19.5819 18.1193 18.4907C17.5104 23.1253 22.4427 27.0976 27.3877 25.9451V26.8725ZM16.33 11.2H23.8884C23.8486 11.6494 23.7607 12.0942 23.626 12.528C22.3718 12.8503 21.2293 13.4621 20.3081 14.3045C19.3868 15.1469 18.7179 16.1917 18.3654 17.3387C13.6414 18.6219 8.67589 15.1733 8.74821 10.6667C8.74821 7.024 11.8392 4.03413 15.7468 3.76V10.6667C15.7468 10.8081 15.8082 10.9438 15.9176 11.0438C16.027 11.1438 16.1753 11.2 16.33 11.2ZM16.9132 10.1333V3.76C20.6283 4.02133 23.5968 6.736 23.8826 10.1333H16.9132ZM25.6614 25.0667C22.1242 25.0667 19.2461 22.4347 19.2461 19.2C19.5983 11.4171 31.7257 11.4192 32.0768 19.2C32.0768 22.4347 29.1986 25.0667 25.6614 25.0667Z" fill="white"/>
</svg>
