<svg width="24" height="25" viewBox="0 0 24 25" fill="none" xmlns="http://www.w3.org/2000/svg">
<path d="M14.7302 0.614883L14.6372 0.56747L14.6256 0.591177C13.8122 0.41338 12.9755 0.306702 12.1157 0.306702C5.70137 0.306702 0.495575 5.6169 0.495575 12.1598C0.495575 18.7027 5.70137 24.0129 12.1157 24.0129C18.53 24.0129 23.7358 18.7027 23.7358 12.1598C23.7358 6.52959 19.8895 1.8239 14.7302 0.614883ZM20.7261 8.60389H11.4417L14.5907 3.03292C17.3796 3.81523 19.6455 5.90137 20.7261 8.60389ZM13.3939 2.77215L10.1054 8.60389L8.76908 10.9745L5.60841 5.40354C7.28171 3.7204 9.58248 2.67733 12.1157 2.67733C12.5456 2.67733 12.9755 2.71288 13.3939 2.77215ZM4.79501 6.33994L8.09511 12.1598L9.43142 14.5304H3.12172C2.93579 13.7718 2.81959 12.9777 2.81959 12.1598C2.81959 9.96699 3.56328 7.95196 4.79501 6.33994ZM3.50518 15.7158H12.778L9.62896 21.2867C6.84014 20.4926 4.58585 18.4183 3.50518 15.7158ZM10.8375 21.5356L15.4739 13.3451L18.6345 18.9161C16.9496 20.5992 14.6488 21.6423 12.1157 21.6423C11.6741 21.6423 11.2558 21.5949 10.8375 21.5356ZM19.4363 17.9797L14.7883 9.7892H21.098C21.2955 10.5478 21.4117 11.342 21.4117 12.1598C21.4117 14.3526 20.668 16.3677 19.4363 17.9797Z" fill="white"/>
</svg>
