<svg width="35" height="35" viewBox="0 0 35 35" fill="none" xmlns="http://www.w3.org/2000/svg">
<path fill-rule="evenodd" clip-rule="evenodd" d="M29.0914 23.8009C28.9978 23.2849 29.061 22.7526 29.2727 22.2727C29.4744 21.8022 29.8093 21.4009 30.2361 21.1182C30.6629 20.8356 31.1631 20.6839 31.675 20.6818H31.8182C32.6621 20.6818 33.4714 20.3466 34.0681 19.7499C34.6648 19.1532 35 18.3439 35 17.5C35 16.6561 34.6648 15.8468 34.0681 15.2501C33.4714 14.6534 32.6621 14.3182 31.8182 14.3182H31.5477C31.0358 14.3161 30.5356 14.1644 30.1088 13.8818C29.6994 13.6107 29.3747 13.2305 29.1709 12.7847C29.1537 12.747 29.1455 12.7059 29.1455 12.6645C29.1455 12.622 29.1363 12.58 29.1201 12.5407C28.9288 12.0765 28.8743 11.5667 28.9641 11.0718C29.0577 10.5557 29.3037 10.0795 29.6705 9.70455L29.7659 9.60909C30.0617 9.31359 30.2964 8.96267 30.4566 8.5764C30.6167 8.19013 30.6991 7.77609 30.6991 7.35795C30.6991 6.93981 30.6167 6.52577 30.4566 6.13951C30.2964 5.75324 30.0617 5.40232 29.7659 5.10682C29.4704 4.81098 29.1195 4.5763 28.7332 4.41617C28.347 4.25605 27.9329 4.17363 27.5148 4.17363C27.0966 4.17363 26.6826 4.25605 26.2963 4.41617C25.9101 4.5763 25.5591 4.81098 25.2636 5.10682L25.1682 5.20227C24.7932 5.56904 24.317 5.81507 23.8009 5.90864C23.2849 6.00222 22.7526 5.93905 22.2727 5.72727C21.8022 5.5256 21.4009 5.19075 21.1182 4.76392C20.8356 4.3371 20.6839 3.83693 20.6818 3.325V3.18182C20.6818 2.33795 20.3466 1.52864 19.7499 0.931933C19.1532 0.335226 18.3439 0 17.5 0C16.6561 0 15.8468 0.335226 15.2501 0.931933C14.6534 1.52864 14.3182 2.33795 14.3182 3.18182V3.45227C14.3161 3.96421 14.1644 4.46437 13.8818 4.89119C13.6107 5.30056 13.2305 5.62532 12.7847 5.82912C12.747 5.84635 12.7059 5.85455 12.6645 5.85455C12.622 5.85455 12.58 5.86365 12.5407 5.87986C12.0765 6.07124 11.5667 6.12565 11.0718 6.03592C10.5557 5.94234 10.0795 5.69631 9.70455 5.32955L9.60909 5.23409C9.31359 4.93826 8.96267 4.70357 8.5764 4.54345C8.19013 4.38332 7.77609 4.30091 7.35795 4.30091C6.93981 4.30091 6.52577 4.38332 6.13951 4.54345C5.75324 4.70357 5.40232 4.93826 5.10682 5.23409C4.81098 5.5296 4.5763 5.88051 4.41617 6.26678C4.25605 6.65305 4.17363 7.06709 4.17363 7.48523C4.17363 7.90337 4.25605 8.31741 4.41617 8.70367C4.5763 9.08994 4.81098 9.44086 5.10682 9.73636L5.20227 9.83182C5.56904 10.2068 5.81507 10.683 5.90864 11.1991C6.00222 11.7151 5.93905 12.2474 5.72727 12.7273C5.54546 13.2216 5.21913 13.6498 4.7907 13.9563C4.36228 14.2627 3.85158 14.4331 3.325 14.4455H3.18182C2.33795 14.4455 1.52864 14.7807 0.931933 15.3774C0.335226 15.9741 0 16.7834 0 17.6273C0 18.4711 0.335226 19.2804 0.931933 19.8772C1.52864 20.4739 2.33795 20.8091 3.18182 20.8091H3.45227C3.96421 20.8111 4.46437 20.9628 4.89119 21.2455C5.31802 21.5282 5.65288 21.9295 5.85455 22.4C6.06632 22.8798 6.12949 23.4121 6.03592 23.9282C5.94234 24.4443 5.69631 24.9205 5.32955 25.2955L5.23409 25.3909C4.93826 25.6864 4.70357 26.0373 4.54345 26.4236C4.38332 26.8099 4.30091 27.2239 4.30091 27.642C4.30091 28.0602 4.38332 28.4742 4.54345 28.8605C4.70357 29.2468 4.93826 29.5977 5.23409 29.8932C5.5296 30.189 5.88051 30.4237 6.26678 30.5838C6.65305 30.7439 7.06709 30.8264 7.48523 30.8264C7.90337 30.8264 8.31741 30.7439 8.70367 30.5838C9.08994 30.4237 9.44086 30.189 9.73636 29.8932L9.83182 29.7977C10.2068 29.431 10.683 29.1849 11.1991 29.0914C11.7151 28.9978 12.2474 29.061 12.7273 29.2727C13.2216 29.4545 13.6498 29.7809 13.9563 30.2093C14.2627 30.6377 14.4331 31.1484 14.4455 31.675V31.8182C14.4455 32.6621 14.7807 33.4714 15.3774 34.0681C15.9741 34.6648 16.7834 35 17.6273 35C18.4711 35 19.2804 34.6648 19.8772 34.0681C20.4739 33.4714 20.8091 32.6621 20.8091 31.8182V31.5477C20.8111 31.0358 20.9628 30.5356 21.2455 30.1088C21.5282 29.682 21.9295 29.3471 22.4 29.1455C22.8798 28.9337 23.4121 28.8705 23.9282 28.9641C24.4443 29.0577 24.9205 29.3037 25.2955 29.6705L25.3909 29.7659C25.6864 30.0617 26.0373 30.2964 26.4236 30.4566C26.8099 30.6167 27.2239 30.6991 27.642 30.6991C28.0602 30.6991 28.4742 30.6167 28.8605 30.4566C29.2468 30.2964 29.5977 30.0617 29.8932 29.7659C30.189 29.4704 30.4237 29.1195 30.5838 28.7332C30.7439 28.347 30.8264 27.9329 30.8264 27.5148C30.8264 27.0966 30.7439 26.6826 30.5838 26.2963C30.4237 25.9101 30.189 25.5591 29.8932 25.2636L29.7977 25.1682C29.431 24.7932 29.1849 24.317 29.0914 23.8009ZM12.827 17.303C12.827 14.831 14.831 12.827 17.303 12.827C19.7751 12.827 21.779 14.831 21.779 17.303C21.779 19.7751 19.7751 21.779 17.303 21.779C14.831 21.779 12.827 19.7751 12.827 17.303ZM17.303 11.173C13.9175 11.173 11.173 13.9175 11.173 17.303C11.173 20.6886 13.9175 23.4331 17.303 23.4331C20.6886 23.4331 23.4331 20.6886 23.4331 17.303C23.4331 13.9175 20.6886 11.173 17.303 11.173Z" fill="white"/>
</svg>
