<svg width="37" height="36" viewBox="0 0 37 36" fill="none" xmlns="http://www.w3.org/2000/svg">
<path fill-rule="evenodd" clip-rule="evenodd" d="M30.0625 6H6.9375C6.51178 6 6.16667 6.33579 6.16667 6.75V29.25C6.16667 29.6642 6.51178 30 6.9375 30H30.0625C30.4882 30 30.8333 29.6642 30.8333 29.25V6.75C30.8333 6.33578 30.4882 6 30.0625 6ZM6.9375 4.5C5.66034 4.5 4.625 5.50736 4.625 6.75V29.25C4.625 30.4927 5.66034 31.5 6.9375 31.5H30.0625C31.3397 31.5 32.375 30.4927 32.375 29.25V6.75C32.375 5.50736 31.3397 4.5 30.0625 4.5H6.9375Z" fill="white"/>
<path fill-rule="evenodd" clip-rule="evenodd" d="M9.39583 15.2069C9.39583 11.9864 11.5399 9 14.4759 9C16.5133 9 18.0252 10.3399 18.9583 12.2406C19.8915 10.34 21.4033 9 23.4407 9C26.3771 9 28.5208 11.9869 28.5208 15.2069C28.5208 22.0999 18.9583 27 18.9583 27C18.9583 27 12.5879 23.9332 10.2462 18.8966H13.1547L14.4453 16.7011L15.953 21.75L19.4834 17.4069H23.0952C23.5374 17.4069 23.8958 17.0639 23.8958 16.6408C23.8958 16.2177 23.5374 15.8747 23.0952 15.8747H18.7002L16.6259 18.4264L14.9309 12.75L12.2182 17.3644H9.68474C9.49935 16.6747 9.39583 15.9548 9.39583 15.2069ZM9.67711 17.3642L6.16666 17.3644V18.8966H10.2403L9.67711 17.3642Z" fill="white"/>
</svg>
