<svg width="28" height="33" viewBox="0 0 28 33" fill="none" xmlns="http://www.w3.org/2000/svg">
<path fill-rule="evenodd" clip-rule="evenodd" d="M22.3124 6.15451H5.21344C4.89866 6.15451 4.64348 6.45481 4.64348 6.82524V26.9472C4.64348 27.3176 4.89866 27.6179 5.21344 27.6179H22.3124C22.6272 27.6179 22.8823 27.3176 22.8823 26.9472V6.82524C22.8823 6.45481 22.6272 6.15451 22.3124 6.15451ZM5.21344 4.81305C4.2691 4.81305 3.50355 5.71394 3.50355 6.82524V26.9472C3.50355 28.0585 4.2691 28.9594 5.21344 28.9594H22.3124C23.2567 28.9594 24.0223 28.0585 24.0223 26.9472V6.82524C24.0223 5.71394 23.2567 4.81305 22.3124 4.81305H5.21344Z" fill="#333333"/>
<path fill-rule="evenodd" clip-rule="evenodd" d="M7.03117 14.3883C7.03117 11.5081 8.61653 8.8374 10.7875 8.8374C12.2939 8.8374 13.4118 10.0357 14.1018 11.7355C14.7918 10.0358 15.9096 8.8374 17.4162 8.8374C19.5873 8.8374 21.1724 11.5086 21.1724 14.3883C21.1724 20.5528 14.1018 24.935 14.1018 24.935C14.1018 24.935 9.39145 22.1923 7.65996 17.688H9.81055L10.7648 15.7246L11.8796 20.2398L14.4901 16.3558H17.1606C17.4876 16.3558 17.7527 16.049 17.7527 15.6707C17.7527 15.2923 17.4876 14.9855 17.1606 14.9855H13.9109L12.3772 17.2676L11.1239 12.1911L9.11804 16.3177H7.2448C7.10772 15.7009 7.03117 15.0571 7.03117 14.3883ZM7.23915 16.3176L4.64348 16.3178V17.688H7.65557L7.23915 16.3176Z" fill="#FF002E"/>
</svg>
