<svg width="30" height="27" viewBox="0 0 30 27" fill="none" xmlns="http://www.w3.org/2000/svg">
<path d="M30 0.235168H28.0248V21.3676H30V0.235168Z" fill="white"/>
<path d="M24.0744 24.8896H0.372101V26.6506H24.0744V24.8896Z" fill="white"/>
<path d="M6.29773 14.3235H4.32254V23.1287H6.29773V14.3235Z" fill="white"/>
<path d="M12.2232 9.04034H10.248V23.1286H12.2232V9.04034Z" fill="white"/>
<path d="M18.1488 3.7572H16.1736V10.8013H18.1488V3.7572Z" fill="white"/>
<path d="M24.0744 0.235168H22.0992V10.8014H24.0744V0.235168Z" fill="white"/>
<path d="M20.124 23.1286C18.9521 23.1286 17.8064 22.8187 16.832 22.2382C15.8575 21.6577 15.098 20.8326 14.6495 19.8672C14.201 18.9019 14.0837 17.8396 14.3123 16.8148C14.541 15.79 15.1053 14.8486 15.934 14.1098C16.7627 13.3709 17.8186 12.8677 18.968 12.6639C20.1175 12.46 21.3089 12.5647 22.3917 12.9645C23.4744 13.3644 24.3999 14.0415 25.051 14.9103C25.7021 15.7792 26.0496 16.8006 26.0496 17.8455C26.0496 19.2467 25.4253 20.5904 24.3141 21.5812C23.2028 22.572 21.6956 23.1286 20.124 23.1286ZM20.124 14.3234C19.3427 14.3234 18.579 14.53 17.9293 14.917C17.2797 15.304 16.7734 15.8541 16.4744 16.4976C16.1754 17.1412 16.0971 17.8494 16.2496 18.5326C16.402 19.2158 16.7782 19.8434 17.3307 20.336C17.8832 20.8285 18.5871 21.164 19.3534 21.2999C20.1197 21.4358 20.9139 21.366 21.6358 21.0995C22.3576 20.8329 22.9746 20.3814 23.4087 19.8022C23.8427 19.223 24.0744 18.5421 24.0744 17.8455C24.0744 16.9114 23.6582 16.0155 22.9174 15.355C22.1765 14.6945 21.1717 14.3234 20.124 14.3234Z" fill="white"/>
<path d="M23.7788 19.8661L22.3821 21.1114L28.304 26.3912L29.7007 25.146L23.7788 19.8661Z" fill="white"/>
</svg>
