<svg width="33" height="29" viewBox="0 0 33 29" fill="none" xmlns="http://www.w3.org/2000/svg">
<path fill-rule="evenodd" clip-rule="evenodd" d="M32.5869 14.3107C32.5183 14.3706 32.4367 14.4181 32.3469 14.4505C32.2572 14.4829 32.1609 14.4996 32.0637 14.4996C31.9665 14.4996 31.8702 14.4829 31.7804 14.4505C31.6906 14.4181 31.6091 14.3706 31.5404 14.3107L24.7666 8.41938C24.7187 8.38638 24.6755 8.34855 24.6378 8.30667L21.7355 5.78287C21.6876 5.74987 21.6443 5.71203 21.6067 5.67016L16.8895 1.56709L2.23928 14.3107C2.17056 14.3704 2.08899 14.4179 1.99921 14.4502C1.90943 14.4825 1.8132 14.4992 1.71603 14.4992C1.61885 14.4992 1.52263 14.4825 1.43285 14.4502C1.34307 14.4179 1.26149 14.3704 1.19278 14.3107C1.12407 14.2509 1.06956 14.1799 1.03237 14.1019C0.995184 14.0238 0.976044 13.9401 0.976044 13.8555C0.976044 13.771 0.995184 13.6873 1.03237 13.6092C1.06956 13.5311 1.12407 13.4602 1.19278 13.4004L16.2764 0.280471C16.2999 0.249492 16.3166 0.213899 16.3477 0.185557C16.4188 0.124378 16.5036 0.0764143 16.5967 0.0445762C16.6898 0.0127381 16.7894 -0.00231106 16.8895 0.000341626C16.9895 -0.00250434 17.0892 0.0124558 17.1824 0.0443047C17.2755 0.0761536 17.3602 0.12422 17.4313 0.185557C17.4639 0.21324 17.4783 0.248833 17.504 0.280471L21.4362 3.702V1.97575C21.4362 1.80094 21.516 1.63329 21.6581 1.50967C21.8002 1.38606 21.993 1.31662 22.1939 1.31662H25.2251C25.435 1.31662 25.6244 1.39044 25.7608 1.50974C25.8314 1.57078 25.8874 1.6434 25.9255 1.72339C25.9636 1.80339 25.9831 1.88916 25.9829 1.97575V7.65677L32.5869 13.4004C32.8756 13.6515 32.8756 14.0595 32.5869 14.3107ZM24.4673 2.63488H22.9517V5.02026L24.4673 6.33852V2.63488ZM6.28053 13.1809C6.4815 13.1809 6.67425 13.2504 6.81636 13.374C6.95847 13.4976 7.03831 13.6652 7.03831 13.8401V26.3635C7.03831 26.7131 7.19798 27.0484 7.48221 27.2956C7.76643 27.5429 8.15192 27.6817 8.55387 27.6817H13.1006V19.1131C13.1006 18.9383 13.1804 18.7706 13.3225 18.647C13.4646 18.5234 13.6574 18.454 13.8583 18.454H19.9206C20.1216 18.454 20.3143 18.5234 20.4564 18.647C20.5985 18.7706 20.6784 18.9383 20.6784 19.1131V27.6817H25.2251C25.627 27.6817 26.0125 27.5429 26.2967 27.2956C26.581 27.0484 26.7406 26.7131 26.7406 26.3635V13.8401C26.7406 13.6652 26.8205 13.4976 26.9626 13.374C27.1047 13.2504 27.2974 13.1809 27.4984 13.1809C27.6994 13.1809 27.8921 13.2504 28.0343 13.374C28.1764 13.4976 28.2562 13.6652 28.2562 13.8401V26.3635C28.2562 27.0627 27.9369 27.7333 27.3684 28.2278C26.8 28.7222 26.029 29 25.2251 29H8.55387C7.74997 29 6.97899 28.7222 6.41054 28.2278C5.8421 27.7333 5.52275 27.0627 5.52275 26.3635V13.8401C5.52275 13.6652 5.60258 13.4976 5.74469 13.374C5.88681 13.2504 6.07955 13.1809 6.28053 13.1809ZM19.1628 27.6811V19.7715H14.6161V27.6811H19.1628Z" fill="white"/>
</svg>
