<svg width="283" height="202" viewBox="0 0 283 202" fill="none" xmlns="http://www.w3.org/2000/svg">
<path d="M15.7071 2.7724V189.254" stroke="black" stroke-width="3"/>
<path d="M15.2291 189.585H281.97" stroke="black" stroke-width="3"/>
<path d="M16.722 113.479C16.722 113.479 33.7449 146.309 60.4192 146.309C87.0936 146.309 90.8174 116.868 133.375 113.479C172.512 109.454 171.296 136.024 197.971 136.024C224.645 136.024 270.166 113.479 270.166 113.479" stroke="#0098FF" stroke-width="3"/>
<path d="M16.7731 117.641C15.967 117.641 15.194 117.264 14.6239 116.594C14.0538 115.923 13.7335 115.013 13.7333 114.065C13.7331 113.116 14.0531 112.206 14.6228 111.535C15.1926 110.864 15.9655 110.487 16.7716 110.487C17.5777 110.486 18.3509 110.863 18.9212 111.533C19.4916 112.203 19.8123 113.113 19.8129 114.061C19.8135 115.01 19.4939 115.92 18.9245 116.591C18.355 117.263 17.5822 117.64 16.7761 117.641H16.7731Z" fill="#2400FF"/>
<path d="M104.876 127.081C104.07 127.081 103.297 126.705 102.727 126.034C102.157 125.363 101.837 124.454 101.837 123.505C101.836 122.556 102.156 121.647 102.726 120.976C103.296 120.305 104.069 119.927 104.875 119.927C105.681 119.926 106.454 120.303 107.025 120.973C107.595 121.643 107.916 122.553 107.916 123.501C107.917 124.45 107.597 125.36 107.028 126.031C106.458 126.703 105.686 127.08 104.879 127.081H104.876Z" fill="#2400FF"/>
<path d="M149.861 117.783C149.055 117.783 148.282 117.406 147.712 116.736C147.142 116.065 146.822 115.155 146.822 114.207C146.821 113.258 147.141 112.348 147.711 111.677C148.281 111.006 149.054 110.629 149.86 110.629C150.666 110.628 151.439 111.005 152.01 111.675C152.58 112.345 152.901 113.255 152.901 114.203C152.902 115.152 152.582 116.062 152.013 116.733C151.443 117.405 150.671 117.782 149.864 117.783H149.861Z" fill="#2400FF"/>
<path d="M189.991 136.919C189.185 136.919 188.412 136.542 187.842 135.871C187.272 135.201 186.952 134.291 186.951 133.342C186.951 132.394 187.271 131.484 187.841 130.813C188.411 130.142 189.184 129.765 189.99 129.764C190.796 129.764 191.569 130.14 192.139 130.81C192.71 131.481 193.03 132.39 193.031 133.339C193.032 134.287 192.712 135.197 192.143 135.869C191.573 136.54 190.8 136.918 189.994 136.919H189.991Z" fill="#2400FF"/>
<path d="M61.5591 149.439C60.7531 149.439 59.98 149.062 59.4099 148.392C58.8399 147.721 58.5195 146.811 58.5193 145.863C58.5191 144.914 58.8391 144.004 59.4088 143.333C59.9786 142.662 60.7515 142.285 61.5576 142.285C62.3637 142.284 63.1369 142.66 63.7073 143.331C64.2776 144.001 64.5983 144.911 64.5989 145.859C64.5995 146.808 64.28 147.718 63.7105 148.389C63.141 149.06 62.3682 149.438 61.5622 149.439H61.5591Z" fill="#2400FF"/>
<path d="M266.746 117.503C265.94 117.503 265.167 117.126 264.597 116.455C264.027 115.785 263.707 114.875 263.707 113.927C263.706 112.978 264.026 112.068 264.596 111.397C265.166 110.726 265.939 110.349 266.745 110.348C267.551 110.348 268.324 110.724 268.894 111.395C269.465 112.065 269.786 112.974 269.786 113.923C269.787 114.872 269.467 115.782 268.898 116.453C268.328 117.124 267.555 117.502 266.749 117.503H266.746Z" fill="#2400FF"/>
<path d="M14.4421 42.5689C14.4421 42.5689 47.88 69.8446 68.7787 59.1131C104.876 40.5769 101.457 32.2838 134.515 27.8122C167.573 23.3407 178.592 -1.05614 210.13 5.45495C231.789 9.9265 273.586 42.5689 273.586 42.5689" stroke="#FF008A" stroke-width="3"/>
<path d="M15.962 47.4308C15.1559 47.4308 14.3828 47.1513 13.8128 46.6536C13.2427 46.1559 12.9224 45.4809 12.9222 44.777C12.922 44.0731 13.242 43.3979 13.8117 42.9C14.3815 42.402 15.1544 42.1221 15.9605 42.1218C16.7666 42.1214 17.5398 42.4007 18.1101 42.8981C18.6805 43.3955 19.0012 44.0704 19.0018 44.7743C19.0024 45.4782 18.6828 46.1535 18.1133 46.6517C17.5439 47.1499 16.7711 47.4301 15.965 47.4308H15.962Z" fill="black"/>
<path d="M152.753 25.0733C151.947 25.0733 151.174 24.7937 150.604 24.296C150.034 23.7984 149.714 23.1233 149.714 22.4194C149.713 21.7155 150.033 21.0403 150.603 20.5424C151.173 20.0445 151.946 19.7646 152.752 19.7642C153.558 19.7639 154.331 20.0431 154.902 20.5405C155.472 21.038 155.793 21.7129 155.793 22.4168C155.794 23.1207 155.474 23.796 154.905 24.2942C154.335 24.7923 153.563 25.0726 152.757 25.0733L152.753 25.0733Z" fill="black"/>
<path d="M61.5591 64.4227C60.7531 64.4227 59.98 64.1431 59.4099 63.6454C58.8399 63.1477 58.5195 62.4727 58.5193 61.7688C58.5191 61.0649 58.8391 60.3897 59.4089 59.8918C59.9786 59.3939 60.7515 59.1139 61.5576 59.1136C62.3637 59.1132 63.1369 59.3925 63.7073 59.8899C64.2776 60.3873 64.5983 61.0622 64.5989 61.7661C64.5995 62.47 64.28 63.1453 63.7105 63.6435C63.141 64.1417 62.3682 64.422 61.5622 64.4227H61.5591Z" fill="black"/>
<path d="M116.276 34.9105C115.47 34.9105 114.697 34.6309 114.127 34.1332C113.556 33.6355 113.236 32.9605 113.236 32.2566C113.236 31.5527 113.556 30.8775 114.125 30.3796C114.695 29.8817 115.468 29.6017 116.274 29.6014C117.08 29.601 117.854 29.8803 118.424 30.3777C118.994 30.8751 119.315 31.55 119.316 32.2539C119.316 32.9578 118.997 33.6331 118.427 34.1313C117.858 34.6295 117.085 34.9097 116.279 34.9105H116.276Z" fill="black"/>
<path d="M201.39 6.29278C200.584 6.29278 199.811 6.01319 199.241 5.51552C198.671 5.01784 198.351 4.34282 198.351 3.63891C198.35 2.935 198.67 2.25983 199.24 1.76191C199.81 1.26398 200.583 0.984056 201.389 0.983704C202.195 0.983352 202.968 1.26259 203.539 1.76002C204.109 2.25745 204.43 2.93233 204.43 3.63625C204.431 4.34016 204.111 5.01547 203.542 5.51364C202.972 6.01182 202.2 6.29207 201.393 6.29278H201.39Z" fill="black"/>
<line x1="13.9634" y1="44.3049" x2="282.256" y2="44.3049" stroke="#FF008A" stroke-dasharray="5 2"/>
<line x1="13.9634" y1="113.167" x2="282.256" y2="113.167" stroke="#2400FF" stroke-dasharray="5 2"/>
</svg>
