<svg width="24" height="22" viewBox="0 0 24 22" fill="none" xmlns="http://www.w3.org/2000/svg">
<path d="M14.4828 0.543503L14.3923 0.501226L14.3809 0.522365C13.5882 0.363829 12.7729 0.268707 11.9349 0.268707C5.68411 0.268707 0.610962 5.00364 0.610962 10.8378C0.610962 16.6719 5.68411 21.4068 11.9349 21.4068C18.1858 21.4068 23.2589 16.6719 23.2589 10.8378C23.2589 5.81746 19.5107 1.62155 14.4828 0.543503ZM20.326 7.66705H11.2782L14.347 2.69959C17.0647 3.39715 19.2729 5.2573 20.326 7.66705ZM13.1806 2.46707L9.9759 7.66705L8.67364 9.78086L5.59351 4.8134C7.22417 3.3126 9.46632 2.38252 11.9349 2.38252C12.3539 2.38252 12.7729 2.41423 13.1806 2.46707ZM4.80084 5.64836L8.01685 10.8378L9.31911 12.9516H3.17018C2.989 12.2752 2.87576 11.567 2.87576 10.8378C2.87576 8.88249 3.60049 7.08575 4.80084 5.64836ZM3.54387 14.0085H12.5804L9.51161 18.9759C6.79386 18.2678 4.597 16.4182 3.54387 14.0085ZM10.6893 19.1979L15.2076 11.8947L18.2877 16.8621C16.6457 18.3629 14.4036 19.293 11.9349 19.293C11.5046 19.293 11.097 19.2507 10.6893 19.1979ZM19.0691 16.0272L14.5395 8.72395H20.6884C20.8809 9.40037 20.9941 10.1085 20.9941 10.8378C20.9941 12.793 20.2694 14.5898 19.0691 16.0272Z" fill="#3554F8"/>
</svg>
