<svg width="322" height="356" viewBox="0 0 322 356" fill="none" xmlns="http://www.w3.org/2000/svg">
<path d="M320.761 87.5023C320.158 81.4306 316.483 76.1045 311.032 73.3882L169.004 2.37387C164.015 -0.129385 158.121 -0.129385 153.114 2.37387L11.0854 73.3882C5.65283 76.1223 1.97784 81.4484 1.37422 87.5023C1.17893 89.402 -15.687 278.655 153.86 354.055C156.15 355.084 158.6 355.582 161.068 355.582C163.535 355.582 165.985 355.084 168.276 354.055C337.822 278.655 320.957 89.4197 320.761 87.5023V87.5023ZM161.068 318.246C40.8937 260.156 35.2126 136.183 36.189 100.551L161.068 38.1118L285.858 100.516C286.515 135.828 280.035 260.618 161.068 318.246V318.246Z" fill="black"/>
<path d="M143.315 188.449L102.606 147.74L77.5021 172.844L143.315 238.656L244.634 137.337L219.531 112.233L143.315 188.449Z" fill="black"/>
</svg>
